<?xml version="1.0" encoding="UTF-8"?>
<svg xmlns="http://www.w3.org/2000/svg" viewBox="0 0 235.76 129.75">
  <defs>
    <style>
      .cls-1, .cls-2 {
        fill: none;
      }

      .cls-2 {
        stroke: #101820;
        stroke-linecap: round;
        stroke-linejoin: round;
        stroke-width: 0px;
      }

      .cls-3 {
        fill: #0092c8;
      }

      .cls-4 {
        fill: #eb0a8c;
      }
    </style>
  </defs>
  <g id="Layer_1" data-name="Layer 1"/>
  <g id="Layer_2" data-name="Layer 2">
    <g id="Layer_1-2" data-name="Layer 1">
      <g>
        <polygon class="cls-1" points="124.86 72.23 164.56 72.22 144.98 31.2 124.86 72.23"/>
        <path class="cls-4" d="M123.69,.14h24.71L83.96,129.63l17.13,.05,17.1-34.6,51.15,.04,16.68,34.56h33.06L157.22,.14h-33.53Zm1.17,72.1l20.12-41.03,19.58,41.02h-39.7Z"/>
        <polygon class="cls-3" points="39.78 .14 37.7 .14 81.46 86.95 82.47 84.95 39.78 .14"/>
        <polygon class="cls-3" points="44.92 .14 42.82 .14 84.67 83.36 85.75 81.2 44.92 .14"/>
        <line class="cls-2" x1="160.28" y1=".13" x2="160.28" y2=".13"/>
        <polygon class="cls-4" points="161.55 .07 160.28 .07 222.33 129.75 224.86 129.74 162.81 .07 161.55 .07"/>
        <polygon class="cls-4" points="168.77 .07 166.24 .07 228.53 129.75 230.6 129.75 168.77 .07"/>
        <polygon class="cls-3" points="123.69 .14 83.03 81.17 81.95 83.33 81.13 84.95 80.13 86.95 79.57 88.07 34.47 .15 0 .15 65.94 129.58 83.94 129.68 83.96 129.63 148.4 .14 123.69 .14"/>
        <polygon class="cls-3" points="50.46 .14 48.35 .14 90.2 83.36 91.28 81.2 50.46 .14"/>
        <polygon class="cls-4" points="173.94 0 171.4 0 233.69 129.68 235.76 129.68 173.94 0"/>
      </g>
    </g>
  </g>
</svg>